<svg width="17" height="25" viewBox="0 0 17 25" fill="none" xmlns="http://www.w3.org/2000/svg">
<g id="vuesax/linear/facebook">
<g id="facebook">
<path id="Vector" d="M9.91634 5.8415V9.94984H13.5997C13.883 9.94984 14.0247 10.2332 14.0247 10.5165L13.458 13.2082C13.458 13.3498 13.1747 13.4915 13.033 13.4915H9.91634V23.8332H5.66634V13.6332H3.25801C2.97467 13.6332 2.83301 13.4915 2.83301 13.2082V10.5165C2.83301 10.2332 2.97467 10.0915 3.25801 10.0915H5.66634V5.4165C5.66634 3.00817 7.50801 1.1665 9.91634 1.1665H13.7413C14.0247 1.1665 14.1663 1.30817 14.1663 1.5915V4.9915C14.1663 5.27484 14.0247 5.4165 13.7413 5.4165H10.3413C10.058 5.4165 9.91634 5.55817 9.91634 5.8415Z" stroke="#FFFDFD" stroke-width="2" stroke-miterlimit="10" stroke-linecap="round"/>
</g>
</g>
</svg>
