<svg width="20" height="22" viewBox="0 0 20 22" fill="none" xmlns="http://www.w3.org/2000/svg">
<path d="M7.20081 22C5.58247 22 4.05667 21.4999 2.78833 20.5534C2.55281 20.3776 2.32486 20.1848 2.11053 19.9797C0.63088 18.5616 -0.113739 16.674 0.0141043 14.664C0.11068 13.1455 0.742332 11.6815 1.79206 10.5414C3.18471 9.02904 5.10564 8.19647 7.20081 8.19647C7.56038 8.19647 7.92424 8.22262 8.28256 8.27395C8.40636 8.2918 8.4979 8.39471 8.4979 8.51571V12.0819C8.4979 12.1604 8.45907 12.234 8.3935 12.2802C8.32769 12.3261 8.24322 12.3388 8.16682 12.3141C7.85843 12.2156 7.53718 12.1655 7.2119 12.1655C6.39113 12.1655 5.62231 12.4772 5.04714 13.0433C4.47449 13.607 4.1656 14.3526 4.17796 15.1433C4.19359 16.1632 4.74682 17.0874 5.65812 17.6156C6.07795 17.8591 6.5568 18.0016 7.0427 18.0278C7.42548 18.0471 7.80346 17.9992 8.16682 17.8831C9.4107 17.4846 10.2466 16.3658 10.2466 15.0988L10.2506 0.244444C10.2506 0.109511 10.3633 0 10.5028 0H14.1258C14.2642 0 14.3767 0.108044 14.3779 0.242C14.3812 0.571022 14.4158 0.897844 14.4806 1.21318C14.737 2.46058 15.4579 3.57109 16.5109 4.34084C17.4436 5.02284 18.5557 5.38413 19.7277 5.38609C19.7486 5.38462 19.771 5.38536 19.793 5.38927C19.913 5.41029 20 5.51149 20 5.62956V9.12633C20 9.26273 19.888 9.3808 19.7441 9.37078C18.4712 9.37078 17.2343 9.12878 16.0671 8.65138C15.4746 8.40889 14.9102 8.10895 14.3835 7.7572L14.4009 15.1252C14.3928 16.96 13.6434 18.6834 12.2911 19.9792C11.1927 21.0318 9.80634 21.7037 8.2823 21.9225C7.92576 21.9741 7.56189 22 7.20081 22ZM6.66667 9.77778C4.99296 9.84893 3.9405 10.5182 2.91667 11.8148C2.14302 12.7946 1.8694 13.552 1.79206 14.7875C1.67971 16.5822 2.11841 17.8943 3.50384 19.0766C3.74634 19.2835 3.89425 19.3879 4.16667 19.5556C5.30232 20.2543 7.5 20.3704 7.5 20.3704C7.5 20.3704 7.94971 20.418 8.28231 20.3704C9.69967 20.1667 10.2285 19.7195 11.25 18.7407C12.5062 17.5366 12.8172 16.8456 12.8248 15.1433C12.8248 15.1433 12.9169 7.0193 12.9167 6.92593C12.9164 6.83255 12.8731 5.92871 13.3333 5.7037C13.7936 5.4787 14.5069 6.05416 14.5833 6.11111C15.188 6.56358 15.4466 6.87355 16.1057 7.1901C16.911 7.57696 17.216 7.71141 18.3333 7.74074V6.51852C17.1363 6.47207 15.9309 6.12383 14.8557 5.15307C13.7864 4.1877 13.3788 3.30471 13.189 1.89381C13.1534 1.62964 13.1548 1.49062 13.1405 1.21318H11.7271L11.7271 15.0741C11.7271 16.552 10.6406 18.8362 8.60565 19.4123C7.97804 19.59 7.59096 19.5975 6.93899 19.5556C6.09801 19.5015 5.58989 19.3827 4.85565 19.0049C3.31316 18.2112 2.94069 16.7782 2.91667 15.0741C2.89946 13.8536 3.32833 12.6964 3.84063 12.0819C4.24639 11.5952 5.70974 10.5926 6.66667 10.5926C6.93067 10.5926 6.8274 10.5366 7.08333 10.5926V9.77778C6.82033 9.7482 6.82923 9.77087 6.66667 9.77778Z" fill="#FFFDFD"/>
</svg>
