<svg width="327" height="268" viewBox="0 0 327 268" fill="none" xmlns="http://www.w3.org/2000/svg">
<ellipse cx="148" cy="246" rx="132" ry="22" fill="#FDF8FC"/>
<path fill-rule="evenodd" clip-rule="evenodd" d="M166.78 237.071C220.592 225.25 260.863 177.294 260.863 119.932C260.863 53.6952 207.168 0 140.932 0C74.6952 0 21 53.6952 21 119.932C21 186.168 74.6952 239.863 140.932 239.863C141.036 239.863 141.141 239.863 141.246 239.863C77.459 239.775 25.777 188.039 25.777 124.232C25.777 60.3703 77.5469 8.60038 141.408 8.60038C205.27 8.60038 257.04 60.3703 257.04 124.232C257.04 179.377 218.437 225.506 166.78 237.071Z" fill="#FDF8FC"/>
<path d="M310.41 130.552C309.101 131.308 305.468 135.045 306.353 135.156C307.392 135.287 308.128 134.557 309.268 134.321C310.49 134.067 311.271 134.65 312.368 133.943C313.638 133.126 314.3 131.816 313.76 130.879C313.219 129.943 311.72 129.796 310.41 130.552Z" fill="#FDF8FC"/>
<path d="M321.195 141.521C319.269 142.037 313.363 145.559 314.452 146.002C315.732 146.524 316.919 145.845 318.452 145.933C320.097 146.028 320.893 147.037 322.532 146.511C324.429 145.903 325.721 144.46 325.352 143.082C324.983 141.704 323.122 141.005 321.195 141.521Z" fill="#FDF8FC"/>
<path d="M305.211 154.416C303.284 154.932 297.378 158.453 298.467 158.897C299.748 159.419 300.935 158.74 302.468 158.828C304.112 158.922 304.909 159.931 306.548 159.406C308.445 158.798 309.737 157.354 309.367 155.976C308.998 154.598 307.137 153.9 305.211 154.416Z" fill="#FDF8FC"/>
<path d="M294.24 175.578C292.314 176.094 286.407 179.615 287.497 180.059C288.777 180.581 289.964 179.902 291.497 179.99C293.142 180.084 293.938 181.093 295.577 180.568C297.474 179.96 298.766 178.516 298.397 177.138C298.028 175.76 296.167 175.062 294.24 175.578Z" fill="#FDF8FC"/>
<path d="M15.9891 159.113C17.3298 159.887 21.051 163.714 20.1452 163.828C19.0802 163.962 18.3263 163.214 17.1595 162.972C15.9072 162.713 15.1074 163.309 13.9839 162.586C12.6836 161.749 12.0052 160.407 12.5589 159.448C13.1126 158.489 14.6484 158.339 15.9891 159.113Z" fill="#FDF8FC"/>
<path d="M4.94297 170.347C6.91595 170.876 12.965 174.482 11.8496 174.937C10.5381 175.471 9.32212 174.776 7.75248 174.866C6.06785 174.963 5.25229 175.996 3.57351 175.458C1.63056 174.835 0.307674 173.357 0.685842 171.945C1.06401 170.534 2.96999 169.818 4.94297 170.347Z" fill="#FDF8FC"/>
<path d="M21.3141 183.553C23.287 184.082 29.3361 187.688 28.2207 188.143C26.9092 188.677 25.6932 187.982 24.1236 188.072C22.4389 188.169 21.6234 189.202 19.9446 188.664C18.0016 188.042 16.6788 186.563 17.0569 185.152C17.4351 183.74 19.3411 183.025 21.3141 183.553Z" fill="#FDF8FC"/>
<path d="M32.5504 205.227C34.5234 205.756 40.5725 209.362 39.457 209.816C38.1455 210.351 36.9295 209.656 35.3599 209.746C33.6753 209.842 32.8597 210.876 31.1809 210.338C29.238 209.715 27.9151 208.237 28.2933 206.825C28.6714 205.414 30.5774 204.698 32.5504 205.227Z" fill="#FDF8FC"/>
<path fill-rule="evenodd" clip-rule="evenodd" d="M79.7294 230.859V191.823C79.5674 191.772 79.4907 191.603 79.441 191.494L79.44 191.491C79.44 191.491 73.9776 178.617 72.6001 180.36C71.2225 182.104 70.0495 181.934 69.0807 179.851C69.0807 179.851 67.14 176.361 65.3099 175.524C64.3141 175.069 63.5472 175.487 62.7505 175.921C62.0831 176.285 61.3948 176.66 60.5337 176.542C58.7996 176.306 58.1082 174.731 57.4258 173.177C56.7273 171.585 56.038 170.015 54.2491 169.924C53.0476 169.863 52.2525 170.519 51.4513 171.181C50.6726 171.824 49.888 172.471 48.7187 172.47C46.604 172.466 43.691 170.433 43.691 170.433L40.423 169.415C37.6965 170.271 36.02 170.237 34.0816 170.196C33.6954 170.188 33.2989 170.18 32.8815 170.179C30.8601 170.172 33.7055 173.534 35.3954 174.76C37.4393 175.756 40.423 179.088 40.423 179.088C40.423 179.088 41.3701 180.925 40.6744 181.633C39.1659 183.169 38.0847 184.912 37.4064 186.979L37.834 187.411L38.412 187.997C38.7664 188.43 38.99 188.656 39.4175 189.015C40.1241 189.608 40.9582 189.679 41.7614 189.746C42.6976 189.826 43.5918 189.901 44.1938 190.797C44.7178 191.576 44.9479 193.088 44.9479 193.088C44.9479 193.088 43.5189 198.342 45.4507 200.469C46.9849 202.158 48.9009 202.284 50.9811 202.251L50.8997 202.299C50.3381 202.632 49.8759 202.906 49.4728 203.524C49.0292 204.204 49.0128 204.782 48.9921 205.508C48.9871 205.685 48.9818 205.871 48.97 206.069C48.9128 207.034 49.134 207.803 49.3524 208.562C49.5224 209.154 49.6907 209.739 49.7242 210.405C49.8007 211.927 48.97 213.451 48.97 213.451C48.7531 213.607 48.5361 213.759 48.3201 213.911C46.8123 214.973 45.3471 216.005 44.1938 217.778C42.9614 219.673 44.1479 222.283 46.959 222.869C48.8643 222.544 50.2888 221.526 51.2325 219.815C51.552 220.561 51.971 221.24 52.4894 221.851C50.7305 224.708 52.5335 226.718 54.7519 227.451C55.5503 227.715 56.1655 227.439 56.8153 227.148C57.3273 226.919 57.8608 226.68 58.5226 226.687C60.5577 226.711 61.9755 227.863 63.345 228.977C64.2215 229.69 65.0781 230.386 66.0641 230.76L79.7294 230.859ZM79.3593 191.484L79.44 191.491C79.44 191.491 79.4334 191.49 79.4238 191.489C79.4083 191.487 79.3838 191.486 79.3593 191.484ZM79.2785 191.477L79.3593 191.484C79.3194 191.482 79.2796 191.48 79.2785 191.477Z" fill="#FDF8FC"/>
<path fill-rule="evenodd" clip-rule="evenodd" d="M218.711 239.636V176.901C218.978 176.819 219.104 176.547 219.186 176.371L219.187 176.367C219.187 176.367 228.179 155.676 230.447 158.478C232.715 161.281 234.645 161.008 236.24 157.66C236.24 157.66 239.435 152.05 242.447 150.706C244.087 149.974 245.349 150.646 246.661 151.344C247.759 151.928 248.892 152.531 250.31 152.342C253.165 151.962 254.303 149.431 255.426 146.933C256.576 144.375 257.71 141.852 260.655 141.706C262.633 141.607 263.942 142.662 265.261 143.725C266.543 144.758 267.834 145.799 269.759 145.797C273.24 145.792 278.036 142.524 278.036 142.524L283.415 140.888C287.903 142.264 290.663 142.208 293.854 142.143C294.49 142.13 295.143 142.117 295.83 142.115C299.157 142.104 294.473 147.507 291.691 149.478C288.327 151.078 283.415 156.433 283.415 156.433C283.415 156.433 281.856 159.385 283.001 160.524C285.485 162.992 287.264 165.793 288.381 169.115L287.677 169.81L286.726 170.751C286.142 171.447 285.774 171.81 285.07 172.387C283.907 173.341 282.534 173.454 281.212 173.563C279.671 173.69 278.199 173.812 277.208 175.251C276.345 176.504 275.966 178.933 275.966 178.933C275.966 178.933 278.319 187.378 275.139 190.796C272.613 193.511 269.459 193.712 266.035 193.66L266.169 193.737C267.093 194.272 267.854 194.712 268.518 195.705C269.248 196.799 269.275 197.727 269.309 198.895C269.317 199.179 269.326 199.478 269.345 199.796C269.44 201.347 269.075 202.583 268.716 203.803C268.436 204.753 268.159 205.693 268.104 206.765C267.978 209.211 269.345 211.66 269.345 211.66C269.703 211.91 270.06 212.155 270.415 212.4C272.897 214.106 275.309 215.764 277.208 218.614C279.237 221.66 277.283 225.854 272.656 226.796C269.52 226.274 267.175 224.638 265.621 221.887C265.095 223.086 264.405 224.178 263.552 225.16C266.447 229.751 263.479 232.981 259.828 234.159C258.513 234.584 257.501 234.141 256.431 233.673C255.588 233.304 254.71 232.92 253.62 232.932C250.27 232.97 247.936 234.822 245.682 236.612C244.239 237.757 242.829 238.877 241.206 239.478L218.711 239.636ZM219.32 176.356L219.187 176.367C219.187 176.367 219.198 176.364 219.214 176.363C219.239 176.361 219.28 176.358 219.32 176.356ZM219.453 176.345L219.32 176.356C219.386 176.352 219.451 176.348 219.453 176.345Z" fill="#FDF8FC"/>
<path fill-rule="evenodd" clip-rule="evenodd" d="M121.266 62.5422C129.018 65.3924 135.049 75.0819 136.059 86.3075C136.709 93.5285 135.374 97.9428 131.072 102.792C127.23 107.123 127.626 108.581 133.49 111.684C136.828 113.45 138.188 113.965 142.981 115.279C150.461 117.329 155.204 121.568 159.763 130.277C161.405 133.414 162.231 134.138 166.002 135.743C167.649 136.443 170.095 137.668 171.437 138.464C174.139 140.067 174.95 140.315 176.226 139.931C177.811 139.454 182.262 136.098 186.358 132.292C187.547 131.186 189.668 129.304 191.07 128.109C192.474 126.913 194.521 125.108 195.619 124.098C201.175 118.985 204.294 118.639 212.023 122.277C219.646 125.864 222.289 130.347 219.91 135.652C218.709 138.332 218.668 138.91 219.352 143.476C220.885 153.714 221.127 157.812 220.649 165.423C220.186 172.782 220.447 177.119 221.836 185.143C222.995 191.834 222.139 218.984 220.458 228.906C218.932 237.908 214.128 242.973 207.266 242.817C204.507 242.754 200.835 242.773 194.62 242.88C189.457 242.969 188.209 242.814 180.754 241.156C172.903 239.41 166.17 237.299 156.94 233.688C151.511 231.564 150.813 231.372 146.923 230.938C142.512 230.445 139.131 230.48 138.462 231.026L137.938 231.453L138.395 232.084C138.844 232.704 139.703 233.33 143.32 235.673C150.119 240.077 146.52 248.342 138.948 245.714C138.27 245.479 136.531 244.985 135.082 244.617C132.102 243.86 129.478 242.866 126.335 241.305C115.021 235.687 105.055 233.073 93.1239 232.596C86.1372 232.316 85.158 232.129 77.6923 229.641C69.412 226.882 67.8485 226.046 65.2648 222.998C63.4814 220.894 61.3568 218.805 59.7818 217.608C57.1885 215.637 56.2851 213.499 56.3255 209.43C56.3984 202.211 58.011 199.55 64.1022 196.598C71.5594 192.984 78.9887 186.725 82.7766 180.865C83.7511 179.358 85.1996 177.122 85.9954 175.896C86.7905 174.671 88.6867 172.14 90.2081 170.273C94.2369 165.328 94.2853 165.103 92.2427 160.811C89.6266 155.312 89.6465 151.157 92.3219 144.314C94.1406 139.663 94.2728 139.107 94.7928 133.894C95.8631 123.171 97.6203 120.346 103.714 119.554C107.023 119.123 107.852 118.387 108.242 115.532C108.579 113.054 107.566 112.003 104.466 111.616C100.355 111.103 99.0842 109.777 98.5767 105.472C98.1705 102.026 97.6078 100.552 95.5424 97.5229C93.661 94.7631 93.5847 93.9816 94.8213 90.1171C95.2901 88.6531 95.4986 87.4723 95.5903 85.7663C96.0664 76.8926 99.066 70.6694 105.05 66.1407C109.956 62.4278 116.816 60.9055 121.266 62.5422ZM200.874 136.641C201.599 135.394 202.43 134.116 202.722 133.8C203.684 132.757 204.457 133.256 205.22 135.411C205.468 136.109 205.991 137.578 206.382 138.676C207.76 142.542 207.188 145.041 203.694 150.429C199.558 156.808 199.666 159.168 204.291 163.431C207.625 166.505 207.73 166.967 206.498 173.193C205.334 179.08 204.322 182.912 202.276 189.18C198.74 200.015 198.123 204.928 199.388 212.168C200.28 217.27 199.638 217.387 188.852 214.086C178.105 210.797 173.222 209.053 169.491 207.171C166.432 205.628 165.861 204.893 163.682 199.685C160.897 193.029 157.837 189.41 152.404 186.347C149.047 184.453 148.112 183.592 145.247 179.754C142.063 175.487 141.958 175.174 141.952 169.88L141.947 165.646L142.775 163.033C143.977 159.238 144.469 156.54 144.717 152.388C145.164 144.906 145.75 144.622 151.36 149.162C161.612 157.459 175.248 162.425 180.644 159.827C184.673 157.887 196.211 144.663 200.874 136.641ZM88.1245 195.839C88.2214 195.121 95.4581 189.392 98.4485 187.666C100.69 186.372 102.552 188.324 104.313 193.814C105.877 198.69 105.128 198.982 94.1748 197.763C88.2293 197.101 87.9662 197.017 88.1245 195.839Z" fill="#FDF8FC"/>
</svg>
