<svg width="329" height="341" viewBox="0 0 329 341" fill="none" xmlns="http://www.w3.org/2000/svg">
<path fill-rule="evenodd" clip-rule="evenodd" d="M187.945 255.953C245.979 243.137 289.393 191.388 289.393 129.5C289.393 57.9791 231.413 0 159.893 0C88.3717 0 30.3926 57.9791 30.3926 129.5C30.3926 201.021 88.3717 259 159.893 259C159.979 259 160.066 259 160.153 259C91.3141 258.862 35.5519 203.015 35.5519 134.143C35.5519 65.187 91.4521 9.28685 160.409 9.28685C229.365 9.28685 285.265 65.187 285.265 134.143C285.265 193.638 243.653 243.414 187.945 255.953Z" fill="#FDF8FC"/>
<ellipse cx="159.723" cy="106.12" rx="24.0452" ry="23.1203" fill="#FDF8FC"/>
<ellipse cx="160.648" cy="114.444" rx="27.7444" ry="12.9474" fill="#FDF8FC"/>
<path d="M187.007 118.605L134.755 118.143C134.755 118.143 133.368 132.015 132.443 138.489C131.864 142.542 136.383 144.248 140.304 145.425C144.926 146.812 152.327 147.275 152.327 147.275H168.973C168.973 147.275 176.37 146.812 180.533 145.425C184.168 144.214 187.469 142.32 187.469 138.489C187.469 132.015 187.007 118.605 187.007 118.605Z" fill="#FDF8FC"/>
<path fill-rule="evenodd" clip-rule="evenodd" d="M289.781 216.483C281.522 213.854 273.855 215.021 266.781 219.983C263.915 221.33 261.415 223.33 259.281 225.983C258.614 222.316 258.614 218.65 259.281 214.983L256.781 211.983C243.918 208.412 235.918 213.079 232.781 225.983C231.128 223.522 229.128 221.355 226.781 219.483C228.632 217.799 230.299 215.966 231.781 213.983C224.441 211.653 217.107 210.653 209.781 210.983C210.428 207.359 210.595 203.693 210.281 199.983C215.228 205.132 220.395 205.299 225.781 200.483C226.614 199.566 227.447 198.649 228.281 197.733L229.837 196.021L230.781 194.983C229.114 194.399 227.447 193.816 225.781 193.233C224.114 192.649 222.447 192.066 220.781 191.483C217.19 190.694 213.69 190.861 210.281 191.983C209.958 188.445 209.958 185.111 210.281 181.983C214.753 187.643 220.253 188.976 226.781 185.983C229.265 184 231.598 181.833 233.781 179.483C230.542 178.769 227.209 177.602 223.781 175.983H226.781C229.667 174.604 232.167 172.604 234.281 169.983C236.066 164.627 236.066 159.293 234.281 153.983C232.244 156.189 230.078 158.189 227.781 159.983C227.439 160.821 226.773 161.155 225.781 160.983C222.936 162.405 220.603 164.572 218.781 167.483C218.446 168.647 218.446 169.98 218.781 171.483C215.459 173.055 212.625 175.222 210.281 177.983C210.197 177.733 210.114 177.483 210.031 177.233L209.893 176.819L209.781 176.483C209.792 176.455 209.804 176.428 209.816 176.401L209.842 176.342L209.842 176.341L217.781 157.983L226.781 131.983C229.49 123.844 230.324 115.51 229.281 106.983C227.195 101.254 223.695 95.9207 218.781 90.9825C213.141 85.6771 207.474 80.3437 201.781 74.9825L190.781 65.9825C184.523 62.1275 172.781 50.9825 172.781 50.9825L167.781 31.4825C167.781 31.4825 163.509 24.5476 160.281 21.9825V59.9825C167.252 67.4574 174.085 75.1241 180.781 82.9825C186.768 90.0789 192.935 97.0789 199.281 103.983C200.908 106.482 202.075 109.149 202.781 111.983C201.077 113.914 200.743 115.914 201.781 117.983C198.868 124.807 195.702 131.473 192.281 137.983L190.781 139.983C190.854 141.51 190.187 142.51 188.781 142.983C187.407 145.341 186.074 147.675 184.781 149.983C184.49 151.132 183.657 151.799 182.281 151.983C181.211 151.955 180.378 151.622 179.781 150.983C175.836 151.005 172.503 149.672 169.781 146.983H160.781V313.961L233.781 314.483C240.746 310.09 247.58 305.59 254.281 300.983C255.234 299.028 256.568 297.361 258.281 295.983L258.647 292.681L258.781 291.483L259.094 288.663L259.281 286.983L258.781 282.983C256.631 281.334 254.631 279.501 252.781 277.483C255.488 275.619 256.322 273.119 255.281 269.983C252.612 267.319 249.445 265.485 245.781 264.483C249.142 264.146 252.475 263.646 255.781 262.983C258.903 264.174 261.903 263.84 264.781 261.983C268.793 254.734 266.459 249.234 257.781 245.483L258.302 244.701L258.781 243.983L259.121 243.473L259.781 242.483C263.892 241.542 268.059 241.042 272.281 240.983C280.143 242.893 287.31 241.393 293.781 236.483L292.781 235.483C296.949 228.453 295.949 222.12 289.781 216.483ZM203.781 187.983H206.781C206.956 192.024 207.123 196.024 207.281 199.983C206.964 198.182 206.297 197.849 205.281 198.983C203.862 198.023 202.362 197.19 200.781 196.483C201.204 193.733 202.204 190.899 203.781 187.983ZM206.781 206.983C208.737 213.444 206.904 218.778 201.281 222.983C199.214 220.413 196.714 218.413 193.781 216.983L194.756 214.475L195.531 212.483L196.54 209.887L197.281 207.983C200.549 210.592 203.716 210.259 206.781 206.983ZM210.781 219.983C210.024 218.71 209.358 218.71 208.781 219.983C204.512 224.75 199.512 228.583 193.781 231.483C196.735 232.389 199.568 233.556 202.281 234.983C204.46 229.961 206.627 224.961 208.781 219.983C209.644 220.946 210.311 220.946 210.781 219.983ZM199.781 244.983C203.457 245.715 204.457 247.715 202.781 250.983C200.866 249.412 199.866 247.412 199.781 244.983Z" fill="#FDF8FC"/>
<path fill-rule="evenodd" clip-rule="evenodd" d="M119.964 314.244L159.915 313.959V146.981H150.915C148.193 149.67 144.86 151.003 140.915 150.981C140.318 151.62 139.485 151.953 138.415 151.981C137.039 151.797 136.206 151.13 135.915 149.981C134.622 147.673 133.289 145.339 131.915 142.981C130.509 142.508 129.842 141.508 129.915 139.981L128.415 137.981C124.994 131.472 121.828 124.806 118.915 117.982C119.953 115.913 119.619 113.913 117.915 111.982C118.621 109.148 119.788 106.481 121.415 103.982C127.761 97.0782 133.928 90.0783 139.915 82.9819C146.611 75.1236 153.444 67.4569 160.415 59.9821V21.9824C157.187 24.5475 152.915 31.4823 152.915 31.4823L147.915 50.9822C147.915 50.9822 136.173 62.1271 129.915 65.9821L118.915 74.982C113.222 80.3431 107.555 85.6765 101.915 90.9818C97.001 95.92 93.501 101.253 91.415 106.982C90.372 115.509 91.206 123.843 93.915 131.982L102.915 157.981L110.854 176.339L110.854 176.34L110.88 176.399L110.902 176.45L110.915 176.481L110.803 176.818L110.665 177.231C110.616 177.377 110.568 177.523 110.519 177.669C110.484 177.773 110.45 177.877 110.415 177.981C108.071 175.22 105.237 173.053 101.915 171.481C102.25 169.978 102.25 168.645 101.915 167.481C100.093 164.57 97.76 162.403 94.915 160.981C93.923 161.153 93.257 160.819 92.915 159.981C90.618 158.187 88.4519 156.187 86.4149 153.981C84.6299 159.291 84.6299 164.625 86.4149 169.981C88.5289 172.602 91.029 174.602 93.915 175.981H96.915C93.487 177.6 90.154 178.767 86.9149 179.481C89.098 181.831 91.431 183.998 93.915 185.981C100.443 188.974 105.943 187.641 110.415 181.981C110.738 185.109 110.738 188.443 110.415 191.981C107.006 190.859 103.506 190.692 99.915 191.481C98.2485 192.065 96.5818 192.648 94.915 193.231C93.2482 193.814 91.5815 194.397 89.915 194.981L90.8591 196.019L92.415 197.731C93.2482 198.648 94.0815 199.564 94.915 200.481C100.301 205.297 105.468 205.13 110.415 199.981C110.101 203.691 110.268 207.357 110.915 210.981L111.915 219.981C116.184 224.748 121.184 228.581 126.915 231.481C124.519 232.216 122.202 233.123 119.964 234.201V245.215V245.216C120.258 245.127 120.575 245.048 120.915 244.981C120.869 246.302 120.552 247.497 119.964 248.564V314.244ZM113.915 187.981H116.915C118.492 190.897 119.492 193.731 119.915 196.481C118.334 197.188 116.834 198.021 115.415 198.981C114.399 197.847 113.732 198.18 113.415 199.981C113.573 196.022 113.74 192.022 113.915 187.981ZM119.415 222.981C113.792 218.776 111.959 213.442 113.915 206.981C116.98 210.257 120.147 210.59 123.415 207.981L124.156 209.885L125.165 212.481L125.94 214.474L126.915 216.981C123.982 218.411 121.482 220.411 119.415 222.981Z" fill="#FDF8FC"/>
<rect x="155.393" y="147" width="16" height="167" fill="#FDF8FC"/>
<path fill-rule="evenodd" clip-rule="evenodd" d="M121.961 313.694V237.017C121.639 236.916 121.486 236.584 121.387 236.369L121.385 236.364C121.385 236.364 110.521 211.075 107.781 214.5C105.041 217.925 102.708 217.592 100.781 213.5C100.781 213.5 96.9208 206.643 93.2808 205C91.3001 204.106 89.7747 204.927 88.1901 205.78C86.8626 206.494 85.4936 207.231 83.7808 207C80.3316 206.536 78.9566 203.442 77.5993 200.389C76.2098 197.263 74.839 194.179 71.2808 194C68.8909 193.88 67.3096 195.169 65.7161 196.468C64.1671 197.731 62.6066 199.003 60.2808 199C56.0747 198.994 50.2808 195 50.2808 195L43.7808 193C38.3577 194.682 35.0231 194.614 31.1677 194.535C30.3996 194.519 29.6108 194.503 28.7808 194.5C24.7601 194.486 30.4196 201.091 33.7808 203.5C37.8462 205.455 43.7808 212 43.7808 212C43.7808 212 45.6645 215.609 44.2808 217C41.2804 220.017 39.1299 223.44 37.7808 227.5L38.6312 228.35L39.7808 229.5C40.4858 230.35 40.9305 230.795 41.7808 231.5C43.1863 232.665 44.8452 232.804 46.4428 232.937C48.3048 233.092 50.0836 233.241 51.2808 235C52.323 236.531 52.7808 239.5 52.7808 239.5C52.7808 239.5 49.9384 249.822 53.7808 254C56.8324 257.318 60.6432 257.564 64.7808 257.5L64.6188 257.595C63.5018 258.248 62.5826 258.785 61.7808 260C60.8985 261.336 60.8658 262.471 60.8247 263.898C60.8147 264.246 60.8042 264.611 60.7808 265C60.6669 266.895 61.1069 268.406 61.5412 269.897C61.8794 271.059 62.2141 272.208 62.2808 273.517C62.433 276.507 60.7808 279.5 60.7808 279.5C60.3492 279.806 59.9178 280.106 59.4881 280.404C56.489 282.49 53.5748 284.516 51.2808 288C48.8297 291.722 51.1895 296.849 56.7808 298C60.5704 297.362 63.4037 295.362 65.2808 292C65.9163 293.466 66.7496 294.8 67.7808 296C64.2823 301.612 67.8685 305.56 72.2808 307C73.869 307.518 75.0924 306.977 76.3849 306.405C77.4033 305.955 78.4645 305.485 79.7808 305.5C83.8285 305.546 86.6486 307.81 89.3724 309.997C91.1158 311.397 92.8197 312.766 94.7808 313.5L121.961 313.694ZM121.225 236.351L121.385 236.364C121.385 236.364 121.372 236.361 121.353 236.359C121.322 236.356 121.274 236.353 121.225 236.351ZM121.064 236.337L121.225 236.351C121.146 236.346 121.066 236.341 121.064 236.337Z" fill="#FDF8FC"/>
<path d="M19.9168 180.746C21.587 181.71 26.2226 186.478 25.0942 186.62C23.7675 186.786 22.8284 185.855 21.3748 185.554C19.8148 185.23 18.8184 185.974 17.4188 185.073C15.799 184.03 14.9538 182.358 15.6436 181.163C16.3334 179.968 18.2466 179.782 19.9168 180.746Z" fill="#FDF8FC"/>
<path d="M6.15772 194.741C8.61556 195.399 16.1512 199.892 14.7616 200.458C13.1278 201.124 11.6131 200.258 9.65767 200.37C7.55904 200.49 6.54305 201.778 4.4517 201.108C2.03127 200.332 0.383285 198.49 0.854389 196.732C1.32549 194.973 3.69987 194.082 6.15772 194.741Z" fill="#FDF8FC"/>
<path d="M26.5503 211.192C29.0081 211.851 36.5438 216.344 35.1542 216.91C33.5204 217.576 32.0056 216.71 30.0502 216.822C27.9516 216.942 26.9356 218.23 24.8443 217.559C22.4238 216.784 20.7759 214.942 21.247 213.183C21.7181 211.425 24.0925 210.534 26.5503 211.192Z" fill="#FDF8FC"/>
<path d="M40.5503 238.192C43.0081 238.851 50.5438 243.344 49.1542 243.91C47.5204 244.576 46.0056 243.71 44.0502 243.822C41.9516 243.942 40.9356 245.23 38.8443 244.559C36.4238 243.784 34.7759 241.942 35.247 240.183C35.7181 238.425 38.0925 237.534 40.5503 238.192Z" fill="#FDF8FC"/>
<path d="M306.755 211.871C304.965 212.904 299.998 218.012 301.207 218.164C302.629 218.343 303.635 217.345 305.192 217.022C306.864 216.676 307.932 217.472 309.431 216.507C311.167 215.39 312.073 213.598 311.333 212.318C310.594 211.038 308.544 210.838 306.755 211.871Z" fill="#FDF8FC"/>
<path d="M321.498 226.866C318.864 227.572 310.79 232.386 312.279 232.992C314.029 233.706 315.652 232.778 317.747 232.898C319.996 233.027 321.085 234.407 323.326 233.688C325.919 232.857 327.685 230.883 327.18 229C326.675 227.116 324.131 226.161 321.498 226.866Z" fill="#FDF8FC"/>
<path d="M299.647 244.494C297.013 245.2 288.939 250.014 290.428 250.621C292.178 251.334 293.801 250.406 295.897 250.526C298.145 250.655 299.234 252.035 301.475 251.317C304.068 250.485 305.834 248.512 305.329 246.628C304.825 244.744 302.28 243.789 299.647 244.494Z" fill="#FDF8FC"/>
<path d="M284.646 273.425C282.012 274.131 273.938 278.945 275.427 279.551C277.177 280.265 278.8 279.337 280.896 279.457C283.144 279.586 284.233 280.966 286.474 280.247C289.067 279.416 290.833 277.442 290.328 275.558C289.824 273.675 287.279 272.719 284.646 273.425Z" fill="#FDF8FC"/>
<ellipse cx="160.5" cy="318" rx="139.5" ry="23" fill="#FDF8FC"/>
</svg>
